HIERARCHY
ROOT hip
{
  OFFSET 0 90.174 2.4664
  CHANNELS 6 Xposition Yposition Zposition Zrotation Xrotation Yrotation
  JOINT abdomen
  {
    OFFSET 0 -1.186 -1.5018
    CHANNELS 6 Xposition Yposition Zposition Zrotation Xrotation Yrotation
    JOINT abdomen2
    {
      OFFSET 0 9.964 0.2134
      CHANNELS 6 Xposition Yposition Zposition Zrotation Xrotation Yrotation
      JOINT chest
      {
        OFFSET 0 13.134 -3.2573
        CHANNELS 6 Xposition Yposition Zposition Zrotation Xrotation Yrotation
        JOINT neck
        {
          OFFSET 0 20.686 -1.6905
          CHANNELS 6 Xposition Yposition Zposition Zrotation Xrotation Yrotation
          JOINT head
          {
            OFFSET 0 7.238 -0.1237
            CHANNELS 6 Xposition Yposition Zposition Zrotation Xrotation Yrotation
            End Site
            {
              OFFSET 0 0 0
            }
          }
        }
        JOINT lCollar
        {
          OFFSET 1.7069 20.075 5.0056
          CHANNELS 6 Xposition Yposition Zposition Zrotation Xrotation Yrotation
          JOINT lShldr
          {
            OFFSET 13.6458 -0.047 -4.849
            CHANNELS 6 Xposition Yposition Zposition Zrotation Xrotation Yrotation
            JOINT lForeArm
            {
              OFFSET 28.3255 -0.9759 2.2888
              CHANNELS 6 Xposition Yposition Zposition Zrotation Xrotation Yrotation
              JOINT lHand
              {
                OFFSET 22.1583 -0.53 10.8316
                CHANNELS 6 Xposition Yposition Zposition Zrotation Xrotation Yrotation
                JOINT lThumb1
                {
                  OFFSET 0.786 0.112 2.5817
                  CHANNELS 6 Xposition Yposition Zposition Zrotation Xrotation Yrotation
                  JOINT lThumb2
                  {
                    OFFSET 0.3601 -0.878 4.2331
                    CHANNELS 6 Xposition Yposition Zposition Zrotation Xrotation Yrotation
                    JOINT lThumb2_End
                    {
                      OFFSET 1.8127 -1.216 2.2227
                      CHANNELS 6 Xposition Yposition Zposition Zrotation Xrotation Yrotation
                      End Site
                      {
                        OFFSET 0.0181 -0.0122 0.0222
                      }
                    }
                  }
                }
                JOINT lCarpal1
                {
                  OFFSET 0.9571 1.114 1.7695
                  CHANNELS 6 Xposition Yposition Zposition Zrotation Xrotation Yrotation
                  JOINT lIndex1
                  {
                    OFFSET 4.1246 0.487 4.1451
                    CHANNELS 6 Xposition Yposition Zposition Zrotation Xrotation Yrotation
                    JOINT lIndex2
                    {
                      OFFSET 3.4052 -1.454 2.7682
                      CHANNELS 6 Xposition Yposition Zposition Zrotation Xrotation Yrotation
                      JOINT lIndex2_End
                      {
                        OFFSET 1.4531 -1.795 1.2713
                        CHANNELS 6 Xposition Yposition Zposition Zrotation Xrotation Yrotation
                        End Site
                        {
                          OFFSET 0.0145 -0.0179 0.0127
                        }
                      }
                    }
                  }
                  JOINT lMid1
                  {
                    OFFSET 5.6954 0.21 2.1184
                    CHANNELS 6 Xposition Yposition Zposition Zrotation Xrotation Yrotation
                    JOINT lMid2
                    {
                      OFFSET 3.9766 -1.54 2.3863
                      CHANNELS 6 Xposition Yposition Zposition Zrotation Xrotation Yrotation
                      JOINT lMid2_End
                      {
                        OFFSET 1.4042 -1.926 1.125
                        CHANNELS 6 Xposition Yposition Zposition Zrotation Xrotation Yrotation
                        End Site
                        {
                          OFFSET 0.014 -0.0193 0.0113
                        }
                      }
                    }
                  }
                }
                JOINT lCarpal2
                {
                  OFFSET 2.0956 0.66 -0.3894
                  CHANNELS 6 Xposition Yposition Zposition Zrotation Xrotation Yrotation
                  JOINT lRing1
                  {
                    OFFSET 5.0395 -0.09 2.4971
                    CHANNELS 6 Xposition Yposition Zposition Zrotation Xrotation Yrotation
                    JOINT lRing2
                    {
                      OFFSET 3.7921 -1.552 1.4806
                      CHANNELS 6 Xposition Yposition Zposition Zrotation Xrotation Yrotation
                      JOINT lRing2_End
                      {
                        OFFSET 1.4655 -1.808 0.9609
                        CHANNELS 6 Xposition Yposition Zposition Zrotation Xrotation Yrotation
                        End Site
                        {
                          OFFSET 0.0147 -0.0181 0.0096
                        }
                      }
                    }
                  }
                  JOINT lPinky1
                  {
                    OFFSET 4.9141 -1.269 0.3591
                    CHANNELS 6 Xposition Yposition Zposition Zrotation Xrotation Yrotation
                    JOINT lPinky2
                    {
                      OFFSET 3.1477 -1.685 0.8462
                      CHANNELS 6 Xposition Yposition Zposition Zrotation Xrotation Yrotation
                      JOINT lPinky2_End
                      {
                        OFFSET 0.8055 -1.585 0.7955
                        CHANNELS 6 Xposition Yposition Zposition Zrotation Xrotation Yrotation
                        End Site
                        {
                          OFFSET 0.0081 -0.0158 0.008
                        }
                      }
                    }
                  }
                }
              }
            }
          }
        }
        JOINT rCollar
        {
          OFFSET -1.7069 20.075 5.0056
          CHANNELS 6 Xposition Yposition Zposition Zrotation Xrotation Yrotation
          JOINT rShldr
          {
            OFFSET -13.6458 -0.047 -4.849
            CHANNELS 6 Xposition Yposition Zposition Zrotation Xrotation Yrotation
            JOINT rForeArm
            {
              OFFSET -28.3255 -0.9759 2.2888
              CHANNELS 6 Xposition Yposition Zposition Zrotation Xrotation Yrotation
              JOINT rHand
              {
                OFFSET -22.1583 -0.53 10.8316
                CHANNELS 6 Xposition Yposition Zposition Zrotation Xrotation Yrotation
                JOINT rThumb1
                {
                  OFFSET -0.786 0.112 2.5817
                  CHANNELS 6 Xposition Yposition Zposition Zrotation Xrotation Yrotation
                  JOINT rThumb2
                  {
                    OFFSET -0.3601 -0.878 4.2331
                    CHANNELS 6 Xposition Yposition Zposition Zrotation Xrotation Yrotation
                    JOINT rThumb2_End
                    {
                      OFFSET -1.8127 -1.216 2.2227
                      CHANNELS 6 Xposition Yposition Zposition Zrotation Xrotation Yrotation
                      End Site
                      {
                        OFFSET -0.0181 -0.0122 0.0222
                      }
                    }
                  }
                }
                JOINT rCarpal1
                {
                  OFFSET -0.9571 1.114 1.7695
                  CHANNELS 6 Xposition Yposition Zposition Zrotation Xrotation Yrotation
                  JOINT rIndex1
                  {
                    OFFSET -4.1246 0.487 4.1451
                    CHANNELS 6 Xposition Yposition Zposition Zrotation Xrotation Yrotation
                    JOINT rIndex2
                    {
                      OFFSET -3.4052 -1.454 2.7682
                      CHANNELS 6 Xposition Yposition Zposition Zrotation Xrotation Yrotation
                      JOINT rIndex2_End
                      {
                        OFFSET -1.4531 -1.795 1.2713
                        CHANNELS 6 Xposition Yposition Zposition Zrotation Xrotation Yrotation
                        End Site
                        {
                          OFFSET -0.0145 -0.018 0.0127
                        }
                      }
                    }
                  }
                  JOINT rMid1
                  {
                    OFFSET -5.6954 0.21 2.1184
                    CHANNELS 6 Xposition Yposition Zposition Zrotation Xrotation Yrotation
                    JOINT rMid2
                    {
                      OFFSET -3.9766 -1.54 2.3863
                      CHANNELS 6 Xposition Yposition Zposition Zrotation Xrotation Yrotation
                      JOINT rMid2_End
                      {
                        OFFSET -1.4042 -1.926 1.125
                        CHANNELS 6 Xposition Yposition Zposition Zrotation Xrotation Yrotation
                        End Site
                        {
                          OFFSET -0.014 -0.0193 0.0113
                        }
                      }
                    }
                  }
                }
                JOINT rCarpal2
                {
                  OFFSET -2.0956 0.66 -0.3894
                  CHANNELS 6 Xposition Yposition Zposition Zrotation Xrotation Yrotation
                  JOINT rRing1
                  {
                    OFFSET -5.0395 -0.09 2.4971
                    CHANNELS 6 Xposition Yposition Zposition Zrotation Xrotation Yrotation
                    JOINT rRing2
                    {
                      OFFSET -3.7921 -1.552 1.4806
                      CHANNELS 6 Xposition Yposition Zposition Zrotation Xrotation Yrotation
                      JOINT rRing2_End
                      {
                        OFFSET -1.4655 -1.808 0.9609
                        CHANNELS 6 Xposition Yposition Zposition Zrotation Xrotation Yrotation
                        End Site
                        {
                          OFFSET -0.0147 -0.0181 0.0096
                        }
                      }
                    }
                  }
                  JOINT rPinky1
                  {
                    OFFSET -4.9141 -1.269 0.3592
                    CHANNELS 6 Xposition Yposition Zposition Zrotation Xrotation Yrotation
                    JOINT rPinky2
                    {
                      OFFSET -3.1477 -1.685 0.8462
                      CHANNELS 6 Xposition Yposition Zposition Zrotation Xrotation Yrotation
                      JOINT rPinky2_End
                      {
                        OFFSET -0.8055 -1.585 0.7955
                        CHANNELS 6 Xposition Yposition Zposition Zrotation Xrotation Yrotation
                        End Site
                        {
                          OFFSET -0.0081 -0.0158 0.008
                        }
                      }
                    }
                  }
                }
              }
            }
          }
        }
      }
    }
  }
  JOINT lThigh
  {
    OFFSET 8.367 -8.2066 0.5982
    CHANNELS 6 Xposition Yposition Zposition Zrotation Xrotation Yrotation
    JOINT lShin
    {
      OFFSET 2.1923 -43.463 -0.4932
      CHANNELS 6 Xposition Yposition Zposition Zrotation Xrotation Yrotation
      JOINT lFoot
      {
        OFFSET 0.7333 -45.8593 -2.6451
        CHANNELS 6 Xposition Yposition Zposition Zrotation Xrotation Yrotation
        End Site
        {
          OFFSET 2.6618 -4.2699 12.3931
        }
      }
    }
  }
  JOINT rThigh
  {
    OFFSET -8.367 -8.2066 0.5982
    CHANNELS 6 Xposition Yposition Zposition Zrotation Xrotation Yrotation
    JOINT rShin
    {
      OFFSET -2.1923 -43.463 -0.4931
      CHANNELS 6 Xposition Yposition Zposition Zrotation Xrotation Yrotation
      JOINT rFoot
      {
        OFFSET -0.7333 -45.8593 -2.6451
        CHANNELS 6 Xposition Yposition Zposition Zrotation Xrotation Yrotation
        End Site
        {
          OFFSET -2.6618 -4.2699 12.3931
        }
      }
    }
  }
}
MOTION
Frames:	4
Frame Time:	0.0333333
0 90.174 2.4664 0 0 -0 0 -1.186 -1.5018 0 0 -0 0 9.964 0.2134 0 0 -0 0 13.134 -3.2573 0 0 -0 0 20.686 -1.6905 0 0 -0 0 7.238 -0.1237 0 0 -0 1.7069 20.075 5.0056 0 0 -0 13.6458 -0.047 -4.849 1.66051 0.0835086 5.75766 28.3255 -0.9759 2.2888 -0.0175111 0.895433 15.7816 22.1583 -0.53 10.8316 7.95139e-016 -1.98785e-016 -0 0.786 0.112 2.5817 5.46658e-016 -3.97569e-016 -0 0.3601 -0.878 4.2331 5.96354e-016 0 -0 1.8127 -1.216 2.2227 3.97569e-016 1.98785e-016 9.54166e-015 0.9571 1.114 1.7695 1.49089e-016 -3.97569e-016 -0 4.1246 0.487 4.1451 6.4605e-016 0 3.18055e-015 3.4052 -1.454 2.7682 5.96354e-016 0 3.18055e-015 1.4531 -1.795 1.2713 8.94531e-016 -1.98785e-016 6.36111e-015 5.6954 0.21 2.1184 6.4605e-016 0 3.18055e-015 3.9766 -1.54 2.3863 5.96354e-016 0 3.18055e-015 1.4042 -1.926 1.125 8.94531e-016 -1.98785e-016 6.36111e-015 2.0956 0.66 -0.3894 1.49089e-016 -3.97569e-016 -0 5.0395 -0.09 2.4971 6.4605e-016 0 3.18055e-015 3.7921 -1.552 1.4806 5.96354e-016 0 3.18055e-015 1.4655 -1.808 0.9609 8.94531e-016 -1.98785e-016 6.36111e-015 4.9141 -1.269 0.3591 6.4605e-016 0 3.18055e-015 3.1477 -1.685 0.8462 5.96354e-016 0 3.18055e-015 0.8055 -1.585 0.7955 8.94531e-016 -1.98785e-016 6.36111e-015 -1.7069 20.075 5.0056 0 0 -0 -13.6458 -0.047 -4.849 -1.4496 0.0636048 -5.0245 -28.3255 -0.9759 2.2888 -1.74811 1.20616 -16.8394 -22.1583 -0.53 10.8316 -1.19271e-015 1.98785e-016 -3.18055e-015 -0.786 0.112 2.5817 -3.97569e-016 1.98785e-016 -3.18055e-015 -0.3601 -0.878 4.2331 -2.98177e-016 1.98785e-016 -3.18055e-015 -1.8127 -1.216 2.2227 -2.98177e-016 3.97569e-016 -0 -0.9571 1.114 1.7695 4.96962e-016 0 -6.36111e-015 -4.1246 0.487 4.1451 -9.93923e-017 3.97569e-016 -0 -3.4052 -1.454 2.7682 -8.94531e-016 5.96354e-016 -0 -1.4531 -1.795 1.2713 -3.97569e-016 3.97569e-016 -0 -5.6954 0.21 2.1184 -9.93923e-017 3.97569e-016 -0 -3.9766 -1.54 2.3863 -8.94531e-016 5.96354e-016 -0 -1.4042 -1.926 1.125 -3.97569e-016 3.97569e-016 -0 -2.0956 0.66 -0.3894 4.96962e-016 0 -6.36111e-015 -5.0395 -0.09 2.4971 -9.93923e-017 3.97569e-016 -0 -3.7921 -1.552 1.4806 -8.94531e-016 5.96354e-016 -0 -1.4655 -1.808 0.9609 -3.97569e-016 3.97569e-016 -0 -4.9141 -1.269 0.3592 -9.93923e-017 3.97569e-016 -0 -3.1477 -1.685 0.8462 -8.94531e-016 5.96354e-016 -0 -0.8055 -1.585 0.7955 -3.97569e-016 3.97569e-016 -0 8.367 -8.2066 0.5982 -4.66115 -1.03232 0.120763 2.1923 -43.463 -0.4932 0.00990601 1.55097 0.177175 0.7333 -45.8593 -2.6451 4.65196 -0.54114 -0.255042 -8.367 -8.2066 0.5982 4.66115 -1.03222 -0.120763 -2.1923 -43.463 -0.4931 -0.00990459 1.5509 -0.177176 -0.7333 -45.8593 -2.6451 -4.65196 -0.541171 0.255041 
3.49558 19.7422 -13.6756 -66.6651 65.2858 -0.00314402 0 -1.186 -1.5018 2.19071 -1.3001 -0.55162 3.55271e-015 9.964 0.2134 4.37057 -2.62036 -1.05352 3.55271e-015 13.134 -3.2573 4.37059 -2.62035 -1.05351 -1.06581e-014 20.686 -1.6905 -9.18169 3.47854 5.5628 3.55271e-015 7.238 -0.1237 -0.041691 4.72111 0.0288211 1.7069 20.075 5.0056 50.4217 23.5703 -41.4539 13.6458 -0.047 -4.849 17.2088 -17.5492 -28.5782 28.3255 -0.9759 2.2888 -23.6456 -19.0175 -28.591 22.1583 -0.53 10.8316 -24.1386 -49.8461 -53.5097 0.786 0.112 2.5817 1.3307e-006 2.45349e-007 1.04032e-006 0.3601 -0.878 4.2331 0 0 -3.97569e-016 1.8127 -1.216 2.2227 1.3307e-006 2.45349e-007 1.04032e-006 0.9571 1.114 1.7695 -4.77083e-015 -1.59028e-015 -2.78299e-015 4.1246 0.487 4.1451 1.3307e-006 2.45349e-007 1.04032e-006 3.4052 -1.454 2.7682 -1.59028e-015 0 -0 1.4531 -1.795 1.2713 1.3307e-006 2.45349e-007 1.04032e-006 5.6954 0.21 2.1184 1.3307e-006 2.45349e-007 1.04032e-006 3.9766 -1.54 2.3863 -1.59028e-015 0 -0 1.4042 -1.926 1.125 1.3307e-006 2.45349e-007 1.04032e-006 2.0956 0.66 -0.3894 -4.77083e-015 -1.59028e-015 -2.78299e-015 5.0395 -0.09 2.4971 1.3307e-006 2.45349e-007 1.04032e-006 3.7921 -1.552 1.4806 -1.59028e-015 0 -0 1.4655 -1.808 0.9609 1.3307e-006 2.45349e-007 1.04032e-006 4.9141 -1.269 0.3591 1.3307e-006 2.45349e-007 1.04032e-006 3.1477 -1.685 0.8462 -1.59028e-015 0 -0 0.8055 -1.585 0.7955 1.3307e-006 2.45349e-007 1.04032e-006 -1.7069 20.075 5.0056 5.706 -6.81681 14.5851 -13.6458 -0.047 -4.849 59.0352 -3.34888 -5.03409 -28.3255 -0.9759 2.2888 31.4024 -40.1173 50.5068 -22.1583 -0.53 10.8316 63.5554 12.1187 -60.212 -0.786 0.112 2.5817 0 1.59028e-015 -0 -0.3601 -0.878 4.2331 -3.53635e-006 9.67389e-008 5.80159e-006 -1.8127 -1.216 2.2227 5.67117e-007 -1.28703e-006 9.5907e-007 -0.9571 1.114 1.7695 0 3.18055e-015 -0 -4.1246 0.487 4.1451 0 0 -3.18055e-015 -3.4052 -1.454 2.7682 -3.53635e-006 9.67389e-008 5.80159e-006 -1.4531 -1.795 1.2713 5.67117e-007 -1.28703e-006 9.5907e-007 -5.6954 0.21 2.1184 0 0 -3.18055e-015 -3.9766 -1.54 2.3863 -3.53635e-006 9.67389e-008 5.80159e-006 -1.4042 -1.926 1.125 5.67117e-007 -1.28703e-006 9.5907e-007 -2.0956 0.66 -0.3894 0 3.18055e-015 -0 -5.0395 -0.09 2.4971 0 0 -3.18055e-015 -3.7921 -1.552 1.4806 -3.53635e-006 9.67389e-008 5.80159e-006 -1.4655 -1.808 0.9609 5.67117e-007 -1.28703e-006 9.5907e-007 -4.9141 -1.269 0.3592 0 0 -3.18055e-015 -3.1477 -1.685 0.8462 -3.53635e-006 9.67389e-008 5.80159e-006 -0.8055 -1.585 0.7955 5.67117e-007 -1.28703e-006 9.5907e-007 8.367 -8.2066 0.5982 -1.42091 -25.4232 -0.568362 2.1923 -43.463 -0.4932 -3.97504 -0.743082 2.26753 0.7333 -45.8593 -2.6451 6.40212 23.2993 -1.00124 -8.367 -8.2066 0.5982 -6.02099 -22.2772 -10.4396 -2.1923 -43.463 -0.4931 22.022 38.5808 -22.2154 -0.7333 -45.8593 -2.6451 -12.2933 32.0594 9.09604 
0.0292462 -9.00683 -23.9211 83.3055 85.8414 -179.974 0 -1.186 -1.5018 3.12517 -1.73341 -1.17257 0 9.964 0.2134 6.21858 -3.52784 -2.2504 -8.88178e-016 13.134 -3.2573 6.21859 -3.52785 -2.2504 0 20.686 -1.6905 -13.489 5.00757 8.11733 0 7.238 -0.1237 0.00130729 6.78058 -0.0930232 1.7069 20.075 5.0056 82.4999 23.7967 -62.1579 13.6458 -0.047 -4.849 17.8569 -20.1823 -45.5274 28.3255 -0.9759 2.2888 -41.7801 -16.5722 -48.8023 22.1583 -0.53 10.8316 -51.089 -42.0339 -90.1689 0.786 0.112 2.5817 -1.45938e-006 -3.96436e-006 2.1448e-007 0.3601 -0.878 4.2331 2.76681e-007 -1.38519e-007 4.3792e-006 1.8127 -1.216 2.2227 1.14489e-006 2.12034e-006 2.25886e-006 0.9571 1.114 1.7695 1.59028e-015 0 3.18055e-015 4.1246 0.487 4.1451 -1.45938e-006 -3.96436e-006 2.1448e-007 3.4052 -1.454 2.7682 2.76681e-007 -1.38519e-007 4.3792e-006 1.4531 -1.795 1.2713 1.14489e-006 2.12034e-006 2.25886e-006 5.6954 0.21 2.1184 -1.45938e-006 -3.96436e-006 2.1448e-007 3.9766 -1.54 2.3863 2.76681e-007 -1.38519e-007 4.3792e-006 1.4042 -1.926 1.125 1.14489e-006 2.12034e-006 2.25886e-006 2.0956 0.66 -0.3894 1.59028e-015 0 3.18055e-015 5.0395 -0.09 2.4971 -1.45938e-006 -3.96436e-006 2.1448e-007 3.7921 -1.552 1.4806 2.76681e-007 -1.38519e-007 4.3792e-006 1.4655 -1.808 0.9609 1.14489e-006 2.12034e-006 2.25886e-006 4.9141 -1.269 0.3591 -1.45938e-006 -3.96436e-006 2.1448e-007 3.1477 -1.685 0.8462 2.76681e-007 -1.38519e-007 4.3792e-006 0.8055 -1.585 0.7955 1.14489e-006 2.12034e-006 2.25886e-006 -1.7069 20.075 5.0056 9.38024 -9.99658 21.6364 -13.6458 -0.047 -4.849 86.0687 -4.89451 -4.9398 -28.3255 -0.9759 2.2888 56.1263 -23.3342 73.6795 -22.1583 -0.53 10.8316 88.5664 17.7228 -90.7833 -0.786 0.112 2.5817 1.98785e-015 3.18055e-015 -9.54166e-015 -0.3601 -0.878 4.2331 -1.98785e-015 3.18055e-015 -6.36111e-015 -1.8127 -1.216 2.2227 -7.95139e-016 1.59028e-015 -6.36111e-015 -0.9571 1.114 1.7695 1.19271e-015 1.59028e-015 -0 -4.1246 0.487 4.1451 -2.38542e-015 3.18055e-015 9.54166e-015 -3.4052 -1.454 2.7682 -1.19271e-015 1.59028e-015 -3.18055e-015 -1.4531 -1.795 1.2713 1.76556e-031 1.59028e-015 -6.36111e-015 -5.6954 0.21 2.1184 -2.38542e-015 3.18055e-015 9.54166e-015 -3.9766 -1.54 2.3863 -1.19271e-015 1.59028e-015 -3.18055e-015 -1.4042 -1.926 1.125 1.76556e-031 1.59028e-015 -6.36111e-015 -2.0956 0.66 -0.3894 1.19271e-015 1.59028e-015 -0 -5.0395 -0.09 2.4971 -2.38542e-015 3.18055e-015 9.54166e-015 -3.7921 -1.552 1.4806 -1.19271e-015 1.59028e-015 -3.18055e-015 -1.4655 -1.808 0.9609 1.76556e-031 1.59028e-015 -6.36111e-015 -4.9141 -1.269 0.3592 -2.38542e-015 3.18055e-015 9.54166e-015 -3.1477 -1.685 0.8462 -1.19271e-015 1.59028e-015 -3.18055e-015 -0.8055 -1.585 0.7955 1.76556e-031 1.59028e-015 -6.36111e-015 8.367 -8.2066 0.5982 -0.414894 -38.2996 -0.646107 2.1923 -43.463 -0.4932 -5.75614 4.38746 3.47841 0.7333 -45.8593 -2.6451 7.4596 30.2051 -0.999564 -8.367 -8.2066 0.5982 -12.0281 -31.2756 -16.2501 -2.1923 -43.463 -0.4931 41.7125 49.9742 -37.6153 -0.7333 -45.8593 -2.6451 -19.6686 49.1155 14.3946 
0.610937 -2.96401 -21.4217 -89.9728 86.6182 -0.0290759 0 -1.186 -1.5018 2.95036 -1.23241 -1.02754 -4.44089e-016 9.964 0.2134 5.88036 -2.51577 -1.99078 -2.22045e-016 13.134 -3.2573 5.88035 -2.51576 -1.99079 -3.19189e-016 20.686 -1.6905 -12.4189 4.64773 7.62612 0 7.238 -0.1237 0.128411 6.17822 -0.365426 1.7069 20.075 5.0056 74.6745 24.1444 -57.0085 13.6458 -0.047 -4.849 17.8796 -19.9332 -41.4407 28.3255 -0.9759 2.2888 -37.4874 -18.3764 -43.8017 22.1583 -0.53 10.8316 -47.2828 -44.6321 -83.9819 0.786 0.112 2.5817 0 0 -3.18055e-015 0.3601 -0.878 4.2331 -0 0 3.18055e-015 1.8127 -1.216 2.2227 -8.82781e-032 -1.59028e-015 -3.18055e-015 0.9571 1.114 1.7695 0 0 -3.18055e-015 4.1246 0.487 4.1451 -0 0 3.18055e-015 3.4052 -1.454 2.7682 -8.82781e-032 -1.59028e-015 -3.18055e-015 1.4531 -1.795 1.2713 0 3.18055e-015 -0 5.6954 0.21 2.1184 -0 0 3.18055e-015 3.9766 -1.54 2.3863 -8.82781e-032 -1.59028e-015 -3.18055e-015 1.4042 -1.926 1.125 0 3.18055e-015 -0 2.0956 0.66 -0.3894 0 0 -3.18055e-015 5.0395 -0.09 2.4971 -0 0 3.18055e-015 3.7921 -1.552 1.4806 -8.82781e-032 -1.59028e-015 -3.18055e-015 1.4655 -1.808 0.9609 0 3.18055e-015 -0 4.9141 -1.269 0.3591 -0 0 3.18055e-015 3.1477 -1.685 0.8462 -8.82781e-032 -1.59028e-015 -3.18055e-015 0.8055 -1.585 0.7955 0 3.18055e-015 -0 -1.7069 20.075 5.0056 8.42456 -10.3839 20.7902 -13.6458 -0.047 -4.849 79.6463 -4.57351 -4.74191 -28.3255 -0.9759 2.2888 52.003 -28.6556 70.6062 -22.1583 -0.53 10.8316 82.7479 16.6085 -83.4592 -0.786 0.112 2.5817 1.76556e-031 -3.18055e-015 3.18055e-015 -0.3601 -0.878 4.2331 -1.59028e-015 -4.77083e-015 -3.18055e-015 -1.8127 -1.216 2.2227 -2.38542e-015 -4.77083e-015 -3.18055e-015 -0.9571 1.114 1.7695 1.59028e-015 0 3.18055e-015 -4.1246 0.487 4.1451 2.38542e-015 0 1.27222e-014 -3.4052 -1.454 2.7682 -2.38542e-015 -1.59028e-015 6.36111e-015 -1.4531 -1.795 1.2713 -7.95139e-016 -4.77083e-015 -3.18055e-015 -5.6954 0.21 2.1184 2.38542e-015 0 1.27222e-014 -3.9766 -1.54 2.3863 -2.38542e-015 -1.59028e-015 6.36111e-015 -1.4042 -1.926 1.125 -7.95139e-016 -4.77083e-015 -3.18055e-015 -2.0956 0.66 -0.3894 1.59028e-015 0 3.18055e-015 -5.0395 -0.09 2.4971 2.38542e-015 0 1.27222e-014 -3.7921 -1.552 1.4806 -2.38542e-015 -1.59028e-015 6.36111e-015 -1.4655 -1.808 0.9609 -7.95139e-016 -4.77083e-015 -3.18055e-015 -4.9141 -1.269 0.3592 2.38542e-015 0 1.27222e-014 -3.1477 -1.685 0.8462 -2.38542e-015 -1.59028e-015 6.36111e-015 -0.8055 -1.585 0.7955 -7.95139e-016 -4.77083e-015 -3.18055e-015 8.367 -8.2066 0.5982 -0.617961 -34.4209 -0.66127 2.1923 -43.463 -0.4932 -5.27837 3.81872 3.15229 0.7333 -45.8593 -2.6451 7.00587 28.0586 -0.792901 -8.367 -8.2066 0.5982 -9.64445 -28.0705 -13.373 -2.1923 -43.463 -0.4931 36.17 47.595 -34.1579 -0.7333 -45.8593 -2.6451 -16.9998 45.2103 12.92 
